<mxfile host="app.diagrams.net" agent="Mozilla/5.0 (X11; Linux x86_64) AppleWebKit/537.36 (KHTML, like Gecko) Chrome/130.0.0.0 Safari/537.36" version="28.2.1">
  <diagram name="Page-1" id="7u0jDqiZUS1rl8G8wCQh">
    <mxGraphModel dx="1024" dy="666" grid="1" gridSize="10" guides="1" tooltips="1" connect="1" arrows="1" fold="1" page="1" pageScale="1" pageWidth="4681" pageHeight="3300" math="0" shadow="0">
      <root>
        <mxCell id="0" />
        <mxCell id="1" parent="0" />
        <mxCell id="wRteSTkEwEqD3XqNBMbn-1" value="Parish register A" style="swimlane;fontStyle=0;childLayout=stackLayout;horizontal=1;startSize=26;strokeColor=#DAEEF3;strokeWidth=3;fillColor=none;horizontalStack=0;resizeParent=1;resizeParentMax=0;resizeLast=0;collapsible=1;marginBottom=0;whiteSpace=wrap;html=1;" vertex="1" parent="1">
          <mxGeometry x="240" y="240" width="110" height="52" as="geometry" />
        </mxCell>
        <mxCell id="wRteSTkEwEqD3XqNBMbn-2" value="Record" style="text;strokeColor=#DAEEF3;strokeWidth=3;fillColor=none;align=center;verticalAlign=top;spacingLeft=4;spacingRight=4;overflow=hidden;rotatable=0;points=[[0,0.5],[1,0.5]];portConstraint=eastwest;whiteSpace=wrap;html=1;" vertex="1" parent="wRteSTkEwEqD3XqNBMbn-1">
          <mxGeometry y="26" width="110" height="26" as="geometry" />
        </mxCell>
        <mxCell id="wRteSTkEwEqD3XqNBMbn-3" value="Transcription of parish register A" style="swimlane;fontStyle=0;childLayout=stackLayout;horizontal=1;startSize=26;strokeColor=#F5DEB3;strokeWidth=2;fillColor=none;horizontalStack=0;resizeParent=1;resizeParentMax=0;resizeLast=0;collapsible=1;marginBottom=0;whiteSpace=wrap;html=1;" vertex="1" parent="1">
          <mxGeometry x="540" y="350" width="190" height="52" as="geometry" />
        </mxCell>
        <mxCell id="wRteSTkEwEqD3XqNBMbn-4" value="Instantiation&lt;div&gt;&lt;br&gt;&lt;/div&gt;" style="text;strokeColor=#F5DEB3;strokeWidth=2;fillColor=#F5DEB3;align=center;verticalAlign=top;spacingLeft=4;spacingRight=4;overflow=hidden;rotatable=0;points=[[0,0.5],[1,0.5]];portConstraint=eastwest;whiteSpace=wrap;html=1;" vertex="1" parent="wRteSTkEwEqD3XqNBMbn-3">
          <mxGeometry y="26" width="190" height="26" as="geometry" />
        </mxCell>
        <mxCell id="wRteSTkEwEqD3XqNBMbn-5" value="" style="endArrow=classic;html=1;rounded=0;entryX=0;entryY=0.5;entryDx=0;entryDy=0;exitX=0.991;exitY=0;exitDx=0;exitDy=0;exitPerimeter=0;" edge="1" parent="1" source="wRteSTkEwEqD3XqNBMbn-2" target="wRteSTkEwEqD3XqNBMbn-3">
          <mxGeometry relative="1" as="geometry">
            <mxPoint x="450" y="330" as="sourcePoint" />
            <mxPoint x="540" y="300" as="targetPoint" />
          </mxGeometry>
        </mxCell>
        <mxCell id="wRteSTkEwEqD3XqNBMbn-6" value="has or had instantiation" style="edgeLabel;resizable=0;html=1;;align=center;verticalAlign=middle;" connectable="0" vertex="1" parent="wRteSTkEwEqD3XqNBMbn-5">
          <mxGeometry relative="1" as="geometry" />
        </mxCell>
        <mxCell id="wRteSTkEwEqD3XqNBMbn-9" value="" style="endArrow=classic;html=1;rounded=0;entryX=0;entryY=0.5;entryDx=0;entryDy=0;" edge="1" parent="1" source="wRteSTkEwEqD3XqNBMbn-1" target="wRteSTkEwEqD3XqNBMbn-11">
          <mxGeometry relative="1" as="geometry">
            <mxPoint x="350" y="180" as="sourcePoint" />
            <mxPoint x="551" y="180" as="targetPoint" />
          </mxGeometry>
        </mxCell>
        <mxCell id="wRteSTkEwEqD3XqNBMbn-10" value="has or had instantiation" style="edgeLabel;resizable=0;html=1;;align=center;verticalAlign=middle;" connectable="0" vertex="1" parent="wRteSTkEwEqD3XqNBMbn-9">
          <mxGeometry relative="1" as="geometry" />
        </mxCell>
        <mxCell id="wRteSTkEwEqD3XqNBMbn-11" value="Scan of parish register A" style="swimlane;fontStyle=0;childLayout=stackLayout;horizontal=1;startSize=26;strokeColor=#F5DEB3;strokeWidth=2;fillColor=none;horizontalStack=0;resizeParent=1;resizeParentMax=0;resizeLast=0;collapsible=1;marginBottom=0;whiteSpace=wrap;html=1;" vertex="1" parent="1">
          <mxGeometry x="550" y="100" width="190" height="52" as="geometry" />
        </mxCell>
        <mxCell id="wRteSTkEwEqD3XqNBMbn-12" value="Instantiation&lt;div&gt;&lt;br&gt;&lt;/div&gt;" style="text;strokeColor=#F5DEB3;strokeWidth=2;fillColor=#F5DEB3;align=center;verticalAlign=top;spacingLeft=4;spacingRight=4;overflow=hidden;rotatable=0;points=[[0,0.5],[1,0.5]];portConstraint=eastwest;whiteSpace=wrap;html=1;" vertex="1" parent="wRteSTkEwEqD3XqNBMbn-11">
          <mxGeometry y="26" width="190" height="26" as="geometry" />
        </mxCell>
        <mxCell id="wRteSTkEwEqD3XqNBMbn-17" value="" style="endArrow=classic;html=1;rounded=0;entryX=0.553;entryY=0.058;entryDx=0;entryDy=0;exitX=0.5;exitY=1;exitDx=0;exitDy=0;entryPerimeter=0;" edge="1" parent="1" source="wRteSTkEwEqD3XqNBMbn-11" target="wRteSTkEwEqD3XqNBMbn-3">
          <mxGeometry relative="1" as="geometry">
            <mxPoint x="560" y="394" as="sourcePoint" />
            <mxPoint x="768" y="280" as="targetPoint" />
          </mxGeometry>
        </mxCell>
        <mxCell id="wRteSTkEwEqD3XqNBMbn-18" value="has or had derived instantiation" style="edgeLabel;resizable=0;html=1;;align=center;verticalAlign=middle;" connectable="0" vertex="1" parent="wRteSTkEwEqD3XqNBMbn-17">
          <mxGeometry relative="1" as="geometry" />
        </mxCell>
        <mxCell id="wRteSTkEwEqD3XqNBMbn-19" value="Transcription of parish register A&amp;nbsp;" style="swimlane;fontStyle=0;childLayout=stackLayout;horizontal=1;startSize=40;strokeColor=#FFFAA0;strokeWidth=3;fillColor=none;horizontalStack=0;resizeParent=1;resizeParentMax=0;resizeLast=0;collapsible=1;marginBottom=0;whiteSpace=wrap;html=1;" vertex="1" parent="1">
          <mxGeometry x="870" y="220" width="130" height="66" as="geometry" />
        </mxCell>
        <mxCell id="wRteSTkEwEqD3XqNBMbn-20" value="Activity" style="text;strokeColor=#FFFAA0;strokeWidth=3;fillColor=none;align=center;verticalAlign=top;spacingLeft=4;spacingRight=4;overflow=hidden;rotatable=0;points=[[0,0.5],[1,0.5]];portConstraint=eastwest;whiteSpace=wrap;html=1;" vertex="1" parent="wRteSTkEwEqD3XqNBMbn-19">
          <mxGeometry y="40" width="130" height="26" as="geometry" />
        </mxCell>
        <mxCell id="wRteSTkEwEqD3XqNBMbn-21" value="" style="endArrow=classic;html=1;rounded=0;exitX=1;exitY=0.5;exitDx=0;exitDy=0;" edge="1" parent="1" source="wRteSTkEwEqD3XqNBMbn-19" target="wRteSTkEwEqD3XqNBMbn-23">
          <mxGeometry relative="1" as="geometry">
            <mxPoint x="1010" y="254.936170212766" as="sourcePoint" />
            <mxPoint x="1190" y="253" as="targetPoint" />
          </mxGeometry>
        </mxCell>
        <mxCell id="wRteSTkEwEqD3XqNBMbn-22" value="is or was performed by" style="edgeLabel;resizable=0;html=1;;align=center;verticalAlign=middle;" connectable="0" vertex="1" parent="wRteSTkEwEqD3XqNBMbn-21">
          <mxGeometry relative="1" as="geometry" />
        </mxCell>
        <mxCell id="wRteSTkEwEqD3XqNBMbn-23" value="AI software S for transcription" style="swimlane;fontStyle=0;childLayout=stackLayout;horizontal=1;startSize=33;strokeColor=#E5DFEC;strokeWidth=3;fillColor=none;horizontalStack=0;resizeParent=1;resizeParentMax=0;resizeLast=0;collapsible=1;marginBottom=0;whiteSpace=wrap;html=1;" vertex="1" parent="1">
          <mxGeometry x="1260" y="227" width="130" height="60" as="geometry" />
        </mxCell>
        <mxCell id="wRteSTkEwEqD3XqNBMbn-24" value="Mechanism" style="text;strokeColor=#E5DFEC;strokeWidth=3;fillColor=none;align=center;verticalAlign=top;spacingLeft=4;spacingRight=4;overflow=hidden;rotatable=0;points=[[0,0.5],[1,0.5]];portConstraint=eastwest;whiteSpace=wrap;html=1;" vertex="1" parent="wRteSTkEwEqD3XqNBMbn-23">
          <mxGeometry y="33" width="130" height="27" as="geometry" />
        </mxCell>
        <mxCell id="wRteSTkEwEqD3XqNBMbn-25" value="Training of AI models used in software S" style="swimlane;fontStyle=0;childLayout=stackLayout;horizontal=1;startSize=26;strokeColor=#FFFAA0;strokeWidth=3;fillColor=none;horizontalStack=0;resizeParent=1;resizeParentMax=0;resizeLast=0;collapsible=1;marginBottom=0;whiteSpace=wrap;html=1;" vertex="1" parent="1">
          <mxGeometry x="1210" y="51.5" width="260" height="52" as="geometry" />
        </mxCell>
        <mxCell id="wRteSTkEwEqD3XqNBMbn-26" value="Activity" style="text;strokeColor=#FFFAA0;strokeWidth=3;fillColor=none;align=center;verticalAlign=top;spacingLeft=4;spacingRight=4;overflow=hidden;rotatable=0;points=[[0,0.5],[1,0.5]];portConstraint=eastwest;whiteSpace=wrap;html=1;" vertex="1" parent="wRteSTkEwEqD3XqNBMbn-25">
          <mxGeometry y="26" width="260" height="26" as="geometry" />
        </mxCell>
        <mxCell id="wRteSTkEwEqD3XqNBMbn-28" value="" style="endArrow=classic;html=1;rounded=0;exitX=0.45;exitY=1.038;exitDx=0;exitDy=0;entryX=0.5;entryY=0;entryDx=0;entryDy=0;exitPerimeter=0;" edge="1" parent="1" source="wRteSTkEwEqD3XqNBMbn-26" target="wRteSTkEwEqD3XqNBMbn-23">
          <mxGeometry relative="1" as="geometry">
            <mxPoint x="1320" y="113.5" as="sourcePoint" />
            <mxPoint x="1320" y="203.5" as="targetPoint" />
          </mxGeometry>
        </mxCell>
        <mxCell id="wRteSTkEwEqD3XqNBMbn-29" value="affects or affected" style="edgeLabel;resizable=0;html=1;;align=center;verticalAlign=middle;" connectable="0" vertex="1" parent="wRteSTkEwEqD3XqNBMbn-28">
          <mxGeometry relative="1" as="geometry" />
        </mxCell>
        <mxCell id="wRteSTkEwEqD3XqNBMbn-30" value="List of source material for training of AI models used in software S, and algorithm used" style="swimlane;fontStyle=0;childLayout=stackLayout;horizontal=1;startSize=40;strokeColor=#DAEEF3;strokeWidth=3;fillColor=none;horizontalStack=0;resizeParent=1;resizeParentMax=0;resizeLast=0;collapsible=1;marginBottom=0;whiteSpace=wrap;html=1;" vertex="1" parent="1">
          <mxGeometry x="810" y="44.5" width="250" height="66" as="geometry" />
        </mxCell>
        <mxCell id="wRteSTkEwEqD3XqNBMbn-31" value="Record" style="text;strokeColor=#DAEEF3;strokeWidth=3;fillColor=none;align=center;verticalAlign=top;spacingLeft=4;spacingRight=4;overflow=hidden;rotatable=0;points=[[0,0.5],[1,0.5]];portConstraint=eastwest;whiteSpace=wrap;html=1;" vertex="1" parent="wRteSTkEwEqD3XqNBMbn-30">
          <mxGeometry y="40" width="250" height="26" as="geometry" />
        </mxCell>
        <mxCell id="wRteSTkEwEqD3XqNBMbn-32" value="" style="endArrow=classic;html=1;rounded=0;exitX=1;exitY=0.5;exitDx=0;exitDy=0;entryX=0;entryY=0.5;entryDx=0;entryDy=0;" edge="1" parent="1" source="wRteSTkEwEqD3XqNBMbn-30" target="wRteSTkEwEqD3XqNBMbn-25">
          <mxGeometry relative="1" as="geometry">
            <mxPoint x="1402" y="152" as="sourcePoint" />
            <mxPoint x="1400" y="275" as="targetPoint" />
          </mxGeometry>
        </mxCell>
        <mxCell id="wRteSTkEwEqD3XqNBMbn-33" value="documents" style="edgeLabel;resizable=0;html=1;;align=center;verticalAlign=middle;" connectable="0" vertex="1" parent="wRteSTkEwEqD3XqNBMbn-32">
          <mxGeometry relative="1" as="geometry" />
        </mxCell>
        <mxCell id="wRteSTkEwEqD3XqNBMbn-37" value="" style="endArrow=classic;html=1;rounded=0;exitX=1;exitY=0.5;exitDx=0;exitDy=0;entryX=0;entryY=0;entryDx=0;entryDy=0;" edge="1" parent="1" source="wRteSTkEwEqD3XqNBMbn-11" target="wRteSTkEwEqD3XqNBMbn-19">
          <mxGeometry relative="1" as="geometry">
            <mxPoint x="1032" y="140" as="sourcePoint" />
            <mxPoint x="1030" y="263" as="targetPoint" />
          </mxGeometry>
        </mxCell>
        <mxCell id="wRteSTkEwEqD3XqNBMbn-38" value="affects or affected" style="edgeLabel;resizable=0;html=1;;align=center;verticalAlign=middle;" connectable="0" vertex="1" parent="wRteSTkEwEqD3XqNBMbn-37">
          <mxGeometry relative="1" as="geometry" />
        </mxCell>
        <mxCell id="wRteSTkEwEqD3XqNBMbn-39" value="" style="endArrow=classic;html=1;rounded=0;exitX=-0.015;exitY=1.077;exitDx=0;exitDy=0;entryX=1;entryY=0.25;entryDx=0;entryDy=0;exitPerimeter=0;" edge="1" parent="1" source="wRteSTkEwEqD3XqNBMbn-20" target="wRteSTkEwEqD3XqNBMbn-3">
          <mxGeometry relative="1" as="geometry">
            <mxPoint x="800" y="380" as="sourcePoint" />
            <mxPoint x="930" y="474" as="targetPoint" />
          </mxGeometry>
        </mxCell>
        <mxCell id="wRteSTkEwEqD3XqNBMbn-40" value="results or resulted in" style="edgeLabel;resizable=0;html=1;;align=center;verticalAlign=middle;" connectable="0" vertex="1" parent="wRteSTkEwEqD3XqNBMbn-39">
          <mxGeometry relative="1" as="geometry" />
        </mxCell>
        <mxCell id="wRteSTkEwEqD3XqNBMbn-41" value="Data on the transcription of parish register A (word error rate, alternative word choices considered, ...)" style="swimlane;fontStyle=0;childLayout=stackLayout;horizontal=1;startSize=40;strokeColor=#DAEEF3;strokeWidth=3;fillColor=none;horizontalStack=0;resizeParent=1;resizeParentMax=0;resizeLast=0;collapsible=1;marginBottom=0;whiteSpace=wrap;html=1;" vertex="1" parent="1">
          <mxGeometry x="930" y="370" width="280" height="66" as="geometry" />
        </mxCell>
        <mxCell id="wRteSTkEwEqD3XqNBMbn-42" value="Record" style="text;strokeColor=#DAEEF3;strokeWidth=3;fillColor=none;align=center;verticalAlign=top;spacingLeft=4;spacingRight=4;overflow=hidden;rotatable=0;points=[[0,0.5],[1,0.5]];portConstraint=eastwest;whiteSpace=wrap;html=1;" vertex="1" parent="wRteSTkEwEqD3XqNBMbn-41">
          <mxGeometry y="40" width="280" height="26" as="geometry" />
        </mxCell>
        <mxCell id="wRteSTkEwEqD3XqNBMbn-43" value="" style="endArrow=classic;html=1;rounded=0;exitX=0.5;exitY=0;exitDx=0;exitDy=0;entryX=0.915;entryY=1.127;entryDx=0;entryDy=0;entryPerimeter=0;" edge="1" parent="1" source="wRteSTkEwEqD3XqNBMbn-41" target="wRteSTkEwEqD3XqNBMbn-20">
          <mxGeometry relative="1" as="geometry">
            <mxPoint x="970" y="375.41" as="sourcePoint" />
            <mxPoint x="1120" y="376.41" as="targetPoint" />
          </mxGeometry>
        </mxCell>
        <mxCell id="wRteSTkEwEqD3XqNBMbn-44" value="documents" style="edgeLabel;resizable=0;html=1;;align=center;verticalAlign=middle;" connectable="0" vertex="1" parent="wRteSTkEwEqD3XqNBMbn-43">
          <mxGeometry relative="1" as="geometry" />
        </mxCell>
        <mxCell id="wRteSTkEwEqD3XqNBMbn-45" value="Archivist A" style="swimlane;fontStyle=0;childLayout=stackLayout;horizontal=1;startSize=26;strokeColor=#E5DFEC;strokeWidth=3;fillColor=none;horizontalStack=0;resizeParent=1;resizeParentMax=0;resizeLast=0;collapsible=1;marginBottom=0;whiteSpace=wrap;html=1;" vertex="1" parent="1">
          <mxGeometry x="1080" y="510" width="90" height="52" as="geometry" />
        </mxCell>
        <mxCell id="wRteSTkEwEqD3XqNBMbn-46" value="Person" style="text;strokeColor=#E5DFEC;strokeWidth=3;fillColor=none;align=center;verticalAlign=top;spacingLeft=4;spacingRight=4;overflow=hidden;rotatable=0;points=[[0,0.5],[1,0.5]];portConstraint=eastwest;whiteSpace=wrap;html=1;" vertex="1" parent="wRteSTkEwEqD3XqNBMbn-45">
          <mxGeometry y="26" width="90" height="26" as="geometry" />
        </mxCell>
        <mxCell id="wRteSTkEwEqD3XqNBMbn-47" value="" style="endArrow=classic;html=1;rounded=0;entryX=-0.012;entryY=-0.032;entryDx=0;entryDy=0;exitX=1;exitY=0.75;exitDx=0;exitDy=0;entryPerimeter=0;" edge="1" parent="1" source="wRteSTkEwEqD3XqNBMbn-3" target="wRteSTkEwEqD3XqNBMbn-46">
          <mxGeometry relative="1" as="geometry">
            <mxPoint x="780" y="395.5" as="sourcePoint" />
            <mxPoint x="780" y="596.5" as="targetPoint" />
          </mxGeometry>
        </mxCell>
        <mxCell id="wRteSTkEwEqD3XqNBMbn-48" value="has creator" style="edgeLabel;resizable=0;html=1;;align=center;verticalAlign=middle;" connectable="0" vertex="1" parent="wRteSTkEwEqD3XqNBMbn-47">
          <mxGeometry relative="1" as="geometry" />
        </mxCell>
        <mxCell id="wRteSTkEwEqD3XqNBMbn-49" value="" style="endArrow=classic;html=1;rounded=0;exitX=1.001;exitY=0.059;exitDx=0;exitDy=0;exitPerimeter=0;curved=1;entryX=0.494;entryY=0.954;entryDx=0;entryDy=0;entryPerimeter=0;" edge="1" parent="1" source="wRteSTkEwEqD3XqNBMbn-46" target="wRteSTkEwEqD3XqNBMbn-24">
          <mxGeometry relative="1" as="geometry">
            <mxPoint x="1240" y="550" as="sourcePoint" />
            <mxPoint x="1325" y="290" as="targetPoint" />
            <Array as="points">
              <mxPoint x="1320" y="450" />
            </Array>
          </mxGeometry>
        </mxCell>
        <mxCell id="wRteSTkEwEqD3XqNBMbn-50" value="is or was controller of" style="edgeLabel;resizable=0;html=1;;align=center;verticalAlign=middle;" connectable="0" vertex="1" parent="wRteSTkEwEqD3XqNBMbn-49">
          <mxGeometry relative="1" as="geometry">
            <mxPoint x="-36" as="offset" />
          </mxGeometry>
        </mxCell>
      </root>
    </mxGraphModel>
  </diagram>
</mxfile>
